<svg version="1.1" id="Layer_1" xmlns="http://www.w3.org/2000/svg" x="0" y="0" viewBox="0 0 2500 1942" xml:space="preserve"><style>.st0{fill:#fff}</style><path d="M.3 0h2499.8v1942H.3z"/><g id="Layer_1_1_"><path class="st0" d="M2178.7 621.5c-52.6-58.1-127.1-110-221.9-154.3-189.5-88.6-440.7-137.2-706.9-137.2S732.5 378.9 543 467.2c-94.4 44.3-169 96.3-221.9 154.3-57.2 63.6-86.5 132.3-86.5 203.5 0 71.5 29.3 140 86.8 203.8 52.9 58.4 127.4 110.3 221.9 154.3 189.5 88.6 440.7 137.2 706.9 137.2 266.5 0 517.4-48.9 706.9-137.2 94.7-44.3 169.3-96.3 221.9-154.3 57.5-63.6 86.8-132 86.8-203.5-.4-71.7-29.4-140.2-87.1-203.8z"/><path d="M2160.6 637.7c-50.4-55.6-122.2-105.7-213.9-148.5-186.4-87.1-433.7-135.1-696.5-135.1s-510.1 48-696.5 135.1c-91.4 42.8-163.5 92.9-213.9 148.5-53.5 59.3-80.7 122.3-80.7 187.4s27.2 128.4 80.4 187.3c50.7 55.9 122.6 106 213.9 148.8 186.4 87.1 433.7 135.1 696.5 135.1s510.4-48 696.5-135.1c91.7-42.8 163.5-92.9 213.9-148.8 53.5-59 80.4-121.9 80.4-187.3.3-65.1-26.6-128.4-80.1-187.4z"/><path class="st0" d="M1098 182.1l-14.4 17.4c-11 13.1-43.4 50.7-59.3 64.2-7.3 6.4-27.2 22-44 32.4l-72.4-33.6-153.4 75.2-56.2-126.2S539.7 343.2 440.4 338.9c-8.9 0-48-9.8-48-9.8l16.5 238.4 85.3-11.6c3.7 24.8 7.6 63 8.3 86.5 0 6.1-1.2 93.5-21.4 165.3l-3.4 11.6 7 9.5c.3.3 30.3 44 34.8 137.8-22.6 12.5-81 40-175.1 52.3l-28.7 3.7 8.6 27.5c2.1 7.3 54.7 178.5 127.1 298.3l12.8 21.4 21.1-13.4c14.1-8.9 127.7-90.2 173.6-127.4 22.9 8.6 70 25.7 106.4 35.5 7.3 25.7 22.6 100.9 16.8 196.2l-1.2 19.6 18.6 5.5c1.5.3 38.8 11.3 110 16.5l28.4 1.8 8.6.6 7-4.9c4.6-3.4 106-75.5 133.6-96h2.8c12.8 0 45.8 3.7 122.9 29.3l24.8 8.3 6.4-25.4 67.2-262.5c23.2 18.3 56.5 43.1 89.9 62l10.7 6.1 11.3-5.2c2.8-1.2 54.7-24.8 114-74.3-.6 46.5-4.6 121.9-20.2 220l-4.3 26.3 148.2 6.7 4.6-2.4c35.1-19.3 80.4-41 91.1-42.2.3 0 50.7-6.7 125.9 21.4 4 1.2 28.4 8.3 63.3 8.3 5.8 0 190.1-6.4 190.1-6.4l-77.9-241.4v-.3c-.3-1.2-40.3-146.4-40.3-146.4S1899 876.6 1883.4 810c-4.6-78.8 94.7-131.7 94.7-131.7l-13.1-64.5c8.3-3.4 19.6-7 32.7-8.3 9.2-.9 23.2-1.2 41.3-1.2 31.8 0 65.4 1.5 65.7 1.5l26 1.2-.6-26-3.7-168.1v-3.1l-.9-3.1c-1.5-4.9-34.8-122.9-59.6-171.5L2054 212l-22.3 12.8c-.6.3-61.4 35.1-158.9 62l-18.9 5.2 1.2 19.9c.9 15.6-.6 33.9-3.4 41.6-6.7 20.8-239.6-55.3-239.6-55.3l-185.2 11.9-156.2-107-12.8 9.2-57.5 41.9-83.7-59-18.7-13.1z"/><path d="M1996.8 998.7s-118.6-103.9-136.6-185.2c0 0-9.8-84 91.7-147.3l-13.4-66.3s24.1-16.2 58.1-19.3c33.9-3.4 110.6 0 110.6 0l-3.7-168.1s-33.9-119.8-57.8-167.2c0 0-62.7 36.1-164.7 64.5 0 0 1.8 46.5-8.9 63.3 0 0-10.1 14.7-71.8.6-61.1-13.8-160.8-42.5-188.6-51-.3 0-.6-.3-.9-.3 0 0-152.5 8.3-162.6 9.5l5.2 41.6-69.1-1.8s19.3-51 19.3-52c0 0-127.1-85-131.1-87.1l-71.8 52-98.1-69.4s-41.3 49.2-62 66.9c0 0-34.5 29.3-59 41.6l-68.8-33.6s-9.2 3.7-25.7 11c0 0-72.4 30.3-144.6 71.8L691.8 253S521.6 395.7 421.9 362.7l15.9 173.9s75.5-13.1 75.5-11.9c0 0 13.1 74.6 14.4 117.1 0 0-.3 93.8-22.3 172.1 0 0 37.9 51.6 40 165.6 0 0-64.5 45.8-196.8 63 0 0 52.9 174.2 124.7 292.8 0 0 158-104.2 189.8-134.8 0 0 83.1 32.1 130.5 43.1 0 0 22 87.1 14.1 217.9 0 0 35.5 10.4 104.8 15.6l28.4 1.8s117.4-83.4 136.6-98.4c0 0 16.2-14.1 144.6 28.1l76.7-299.8s58.7 51.6 116.1 84.4c0 0 75.5-33.9 147.6-106.4 0 0 8.3 103.3-19.6 278.4 0 0 93.8 6.7 112.8 5.2 0 0 80.7-44 101.2-45.2 0 0 47.7-2.8 134.8 22.3 0 0 29.6 9.5 72.1 6.7l140.6-4.6s-61.4-187-67.8-211.8c-1 .5-32.5-108.6-39.8-139.1"/><path class="st0" d="M540.5 1737.3c-17.4 14.1-43.1 22.6-72.4 22.6-27.8 0-52.6-8.3-70-22.9-15.6-12.8-23.8-30.3-23.8-50.4 0-19.9 8.3-37 24.1-50.1 17.4-14.4 42.5-23.2 70-23.2 36.1 0 63.6 11.3 80.7 32.7l-34.8 12.2c-11.3-11.9-27.2-18-45.8-18-35.8 0-60.8 19.9-60.8 46.1 0 14.4 6.7 26.3 20.2 35.1 10.4 6.7 24.8 11.3 40.6 11.3 28.1 0 50.7-11.9 59.9-29h-67.2v-26.6h104.2v7.9c-.1 21.5-8.7 38.9-24.9 52.3zm375 18.7l-15.9-29.6H811l-15.9 29.6h-33.9l73.3-138.1h41.6l73.3 138.1h-33.9zM855 1642.9l-30.3 56.5h60.8l-30.5-56.5zm472.2 113.1v-98.1h-.6l-65.7 79.2-65.7-79.2h-.9v98.1h-33.6v-138.1h39.4l60.8 73.3 60.8-73.3h39.4V1756h-33.9zm268.3 0v-138.1h149.8v26.6h-116.1v28.1h80.7v26.6h-80.7v30.3h121.6v26.6h-155.3zm446.8-114.6c-28.7 0-43.7 5.5-43.7 14.4 0 4.9 4 7.9 11.9 9.8 13.1 3.4 30.9 2.4 52.3 4.3 43.4 4 64.2 14.4 64.2 41.6 0 30-28.1 47.7-80.7 47.7-34.5 0-63.3-7.6-89.9-26l18.3-22.6c23.5 14.4 47.1 21.4 73 21.4 27.8 0 43.4-7.9 43.4-19.3 0-12.2-18-12.2-47.4-13.4-53.8-2.4-80.4-12.8-80.4-40.6 0-27.2 27.2-44.3 77-44.3 33.9 0 61.1 6.7 81.3 20.2l-18.9 22c-19.1-10.3-39-15.2-60.4-15.2zM1146 569.3c59.3-6.7 103.9-34.2 103.9-34.2-50.4 85.5-103.9 34.2-103.9 34.2m222.5-108.5s-30 23.8-48.9 32.1c-.3 0-1.2 0-1.8-.3-3.1-4.3-16.8-24.1-23.5-38.8-.6-1.5-1.5-3.1-1.8-4.6 0 0-6.1-12.2-14.7-45.2 0 0-.9 33.3 6.7 57.8 0 0 7.3 23.8 18.9 35.8.6.6 1.2 2.1-.3 3.1-4.6 3.1-16.5 10.1-35.5 18.6-.6.3-2.1.3-3.1-.3-6.7-6.4-37.9-38.8-57.5-99.6 0-.3 0-.3-.3-.6 0 0 2.8 39.7 10.7 61.1 7.3 19.9 21.1 38.2 28.7 44.9.6.6 1.8 1.5.9 2.4-2.4 1.8-12.2 6.4-49.5 15.9-.6 0-1.8 0-2.1-.3-4-5.5-26.9-36.7-33.3-48.3 0 0-9.2-15.9-29.3-75.5 0 0 9.8 100.5 44.6 130.2 0 0-29.6 15.6-51 10.1 0 0-13.4 0-37.3-49.2 0 0-24.4-51.6-84.4-124.4-.3-.3-.3-.9.3-.9 4.6-1.8 25.4-10.1 34.2-18.9 0 0 37.9-52.9 60.2-77 .3-.3.6-.9 1.5-.3l77 60.8s1.2 1.5 2.4.3 40.3-35.1 40.3-35.1.6-.9 1.8 0l42.2 24.1s1.2.6 1.8-.3l30.6-34.8s.9-.9 1.8-.3c.9.9 53.2 44.3 53.2 44.3s.6 1.2 0 2.1c-4 6.4-18 35.1 7.6 79.2-.3-1.4 14.1 27.3 8.9 31.9"/><path d="M1721.1 595.6s-2.8 66.6-3.4 74.3c-.6 7.9.3 33.9-4.6 50.4 0 0-50.7 136.9-75.2 153.1l-12.2-90.8-31.5 64.2s4.6-48.9 16.8-66.6c0 0 44-87.7 44.9-96.9 0 0 9.8-19.3 2.4-23.8 0 0-88.3-87.7-189.5-100.9l214.2-9.5s88.9 63.3 96.6 69.7c.2.6-31.3-4.3-58.5-23.2m-302.2 304.3c-68.5-7-86.5-73.7-86.5-73.7-3.4 23.8 11.9 43.7 11.9 43.7-27.5-18.3-25.4-42.5-25.4-42.5-3.4 31.5 20.5 64.8 20.5 64.8-37-27.5-33.9-68.5-33.9-68.5.6-54.4 2.1-74.3 38.5-118.9 36.4-44.6 57.2-46.1 82.2-51 25.1-4.9 57.8 1.8 57.8 1.8 69.1 9.2 83.1 49.2 83.1 49.2-23.5-15.9-53.5-22.6-53.5-22.6 100 105-10.7 226.3-94.7 217.7M849.8 705.3s11.9-29 7.9-42.8c-.3-.9-.6-1.5-.9-2.1 0 0-76.4 77-177.9 10.4 0 0 18.6 9.5 36.7 9.5l.6-107.9s-15.9 5.2-46.8 36.7c0 0 29-69.4 145.2-107.9 0 0 60.2 41 91.7 54.1.1-.1-7 112.7-56.5 150m1196.8-319.1c-9.5-34.5-31.5-72.4-31.5-72.4l-94.1 47.7c-33.9 101.2-92 78.8-134.2 76.4-41.9-2.4-182.5-56.2-182.5-56.2-2.8-.9-3.4-1.2-3.4-1.2L1500.5 392s17.1 70.6 11.9 98.1-25.4 34.5-88 45.5-59 11-96 33.9c-36.7 22.9-99.3 96.6-99.3 96.6-2.4.9-51.6 10.4-51.6 10.4-52 9.2-73.3-2.1-73.3-2.1-24.4-8.6-64.5-45.5-64.5-45.5-2.4-1.5-1.8-3.4-1.8-3.4 9.5-19.6 19.9-51.6 19.9-51.6 2.8-11.6 2.4-16.2-23.2-58.7-22.3-36.7-23.8-38.5-43.7-63.3-24.4-32.1-108.2-81-108.2-81-1.5-.9-2.4-.9-2.4-.9l-39.4 34.8c-45.8 8.6-129.3 50.4-129.3 50.4-18.9-81.5-50.6-136.8-50.6-136.8-132.9 102.4-198 86.8-198 86.8l8.3 97.5c92.9-5.8 156.5-52.9 156.5-52.9-22.3 33.3-76.1 61.7-76.1 61.7 23.8 50.1 35.1 81.3 39.4 119.8 4.3 38.5-26 168.7-26 168.7 7.3 13.1 31.2 132.9 31.2 132.9 10.4 70.9-6.1 126.8-6.1 126.8l-.3-47.4-26-2.4c-8.6 16.2-29.6 31.8-29.6 31.8-17.4 12.5-88.6 29.6-88.6 29.6 1.2 2.8 18 65.4 25.4 84.4 7.3 18.9 43.1 92.9 43.1 92.9 36.7-20.8 135.7-99.9 135.7-99.9 18.3-15.3 31.8-21.1 38.5-23.8 6.7-2.8 21.7-2.4 36.7-5.2 14.7-2.8 75.8-42.8 75.8-42.8-5.2-4-40.3-88.3-48-108.8-7.3-20.5-19.6-105.4-19.6-105.4-4-2.8-63.3 6.1-63.3 6.1 55.6-52.6 139.4-41.3 139.4-41.3 65.4-1.5 83.1 125.9 83.1 125.9-3.1 2.4-56.8 119.5-56.8 119.5-26.6 46.8-13.1 94.1-13.1 94.1 4 6.1 22.6 104.5 22.6 104.5 5.2 11.3 12.8 139.7 12.8 139.7l73.7-.3c132.9-84.7 123.8-78.5 141.5-83.1 18-4.6 93.5 18.9 93.5 18.9l65.1-154.9-159.2-64.8-1.5 50.4c-29-17.4-22.9-112.5-20.2-135.1 2.8-22.6 18-142.7 18-142.7 7.3-31.8-8.9-51-8.9-52.3s-72-103.8-72-103.8c-89.9 86.5-199.9 58.4-199.9 58.4 151-3.1 219.7-124.4 219.7-124.4l52.9 22.9c.3 2.8-15.6 60.8-15.6 60.8 48 21.1 71.2 81.3 70.9 80.4-.3-.6-38.8-37.3-38.8-37.3l-4 27.2c11.3 7.9 16.2 17.4 16.2 17.4 16.8 16.8 9.8 56.5 9.8 56.5 1.5 1.5-23.8 182.8-23.8 182.8l165.6 70.9c8.9-34.5 4.6-84-2.4-111.6-7-27.5-46.1-156.5-46.1-156.5-18.9-67.2 12.5-152.2 12.5-152.2l28.4 4.6c-10.4 85.9-4 133.9-4 133.9 20.5 174.2 183.1 259.2 183.1 259.2 132.9-76.1 208.1-174.2 208.1-174.2 5.5 51.6-16.2 334.3-16.2 334.3 22.3 3.7 50.4 5.2 50.4 5.2 5.5-.3 94.4-36.1 94.4-36.1 2.8-1.5 4.9-.6 4.9-.6l152.8 24.1c6.7.6 100.2 0 100.2 0-34.5-148.8-39.1-243.9-39.1-243.9l-141.2-166.9v.3c5.2 52 12.2 69.1 14.7 74.3-55.6-84.7-26.6-156.8-14.7-193.1 11.9-36.7 60.8-122.6 60.8-122.6-6.1-92.6-24.1-132.3-24.1-132.3 20.5 10.7 26.6 49.8 26.6 49.8 61.4-46.8 161.4-35.8 161.4-35.8 2.2-75.3-4.9-132.8-4.9-132.8" fill="#ee3124"/></g></svg>